<svg xmlns="http://www.w3.org/2000/svg" width="35.874" height="29.669" viewBox="0 0 35.874 29.669">
  <g id="Correct" transform="translate(-6 -49.242)">
    <path id="Path_18625" data-name="Path 18625" d="M18.547,73.446c-3.4,3.487-9.626,3.819-11.867,8.146a6.215,6.215,0,0,0,5.282,9.07c2.633.1,5.007-1.441,7.243-2.835s4.8-2.745,7.38-2.221c2.445.5,4.286,2.567,6.658,3.34A6.628,6.628,0,0,0,40.024,78c-1.936-1.97-5.1-2.763-6.272-5.265a17.329,17.329,0,0,1-.8-3.288,8.59,8.59,0,0,0-7.557-6.464A3.858,3.858,0,0,0,22.145,64.1a6.268,6.268,0,0,0-1.292,3.689,8.859,8.859,0,0,1-2.306,5.658Z" transform="translate(0 -12.739)" fill="#d6ebfe"/>
    <path id="Path_18626" data-name="Path 18626" d="M161.309,62.859a3.92,3.92,0,0,1-.954-3.532c.713-3.023,3.372-3.2,6.188-2.824a7.223,7.223,0,0,0,3.746-.18,2.561,2.561,0,0,0,1.617-3.025,7.506,7.506,0,0,1,1.139,10.689" transform="translate(-143.189 -3.764)" fill="#f1777a"/>
    <path id="Path_18627" data-name="Path 18627" d="M172.058,55.022a6.35,6.35,0,0,1-6.35,6.35h-5.419a3.931,3.931,0,0,0,1.029,3.088l11.736,1.127A7.5,7.5,0,0,0,172.058,55.022Z" transform="translate(-143.198 -5.365)" fill="#f4605b"/>
    <path id="Path_18628" data-name="Path 18628" d="M114.616,225.569v12.2a2.346,2.346,0,0,1-2.346,2.346H93.274a2.346,2.346,0,0,1-2.346-2.346v-12.2a2.346,2.346,0,0,1,2.346-2.346h18.995A2.346,2.346,0,0,1,114.616,225.569Z" transform="translate(-78.835 -161.498)" fill="#bfdb9a"/>
    <path id="Path_18629" data-name="Path 18629" d="M114.608,225.563v12.2a2.347,2.347,0,0,1-2.346,2.346h-19a2.347,2.347,0,0,1-2.346-2.346v-2.552a8.439,8.439,0,0,0,3.673.836h6.793a8.45,8.45,0,0,0,7.221-12.833h3.655a2.347,2.347,0,0,1,2.346,2.346Z" transform="translate(-78.826 -161.492)" fill="#a4c574"/>
    <path id="Path_18630" data-name="Path 18630" d="M171.622,290.181a3.925,3.925,0,0,1-3.925,3.925H161.41a3.925,3.925,0,0,1,0-7.85H167.7A3.925,3.925,0,0,1,171.622,290.181Z" transform="translate(-140.616 -220.008)" fill="#f0eef1"/>
    <path id="Path_18631" data-name="Path 18631" d="M172.5,291.048a3.924,3.924,0,0,1-3.925,3.925h-6.287a3.925,3.925,0,0,1-3.857-3.2,3.9,3.9,0,0,0,.727.068h6.287a3.927,3.927,0,0,0,3.857-4.654A3.927,3.927,0,0,1,172.5,291.048Z" transform="translate(-141.495 -220.874)" fill="#e5e5e5"/>
    <path id="Path_18632" data-name="Path 18632" d="M152.329,164.664v-2.373a2.153,2.153,0,0,0-2.153-2.153H137.113a2.153,2.153,0,0,0-2.153,2.153v2.373Z" transform="translate(-119.707 -102.939)" fill="#7c8c98"/>
    <path id="Path_18633" data-name="Path 18633" d="M152.34,162.287v2.374H134.973V163.1h14.088a1.187,1.187,0,0,0,1.187-1.187,3.309,3.309,0,0,0-.516-1.78h.456A2.153,2.153,0,0,1,152.34,162.287Z" transform="translate(-119.719 -102.935)" fill="#5b6c76"/>
    <g id="Group_562" data-name="Group 562" transform="translate(11.803 49.242)">
      <path id="Path_18634" data-name="Path 18634" d="M108.506,61.435h-.522V59.352a2.444,2.444,0,0,0-1.247-2.129,7.828,7.828,0,0,0-2.765-7.915.291.291,0,0,0-.456.329,2.284,2.284,0,0,1-1.458,2.653,6.985,6.985,0,0,1-3.595.16c-2.615-.347-5.717-.315-6.509,3.046a4.065,4.065,0,0,0-.062,1.486,2.446,2.446,0,0,0-1.859,2.37v2.083h-.522a2.64,2.64,0,0,0-2.637,2.637v12.2a2.64,2.64,0,0,0,2.637,2.637h18.995a2.64,2.64,0,0,0,2.637-2.637v-12.2A2.64,2.64,0,0,0,108.506,61.435ZM92.52,55.63c.549-2.329,2.248-3.083,5.867-2.6a7.446,7.446,0,0,0,3.9-.2A3.1,3.1,0,0,0,104.2,50.3a7.2,7.2,0,0,1,1.994,6.7,2.431,2.431,0,0,0-.651-.091H92.467a3.492,3.492,0,0,1,.053-1.279Zm-1.905,3.722a1.864,1.864,0,0,1,1.862-1.862H105.54a1.864,1.864,0,0,1,1.862,1.862v2.083H90.615Zm19.946,16.922a2.058,2.058,0,0,1-2.055,2.055H89.511a2.058,2.058,0,0,1-2.055-2.055v-12.2a2.058,2.058,0,0,1,2.055-2.055h18.995a2.058,2.058,0,0,1,2.055,2.055v12.2Z" transform="translate(-86.874 -49.242)" fill="#000013"/>
      <path id="Path_18635" data-name="Path 18635" d="M163.933,282.2h-6.286a4.216,4.216,0,1,0,0,8.432h6.286a4.216,4.216,0,1,0,0-8.432Zm0,7.85h-6.286a3.634,3.634,0,1,1,0-7.269h6.286a3.634,3.634,0,1,1,0,7.269Z" transform="translate(-148.656 -265.488)" fill="#000013"/>
    </g>
  </g>
</svg>
