<svg xmlns="http://www.w3.org/2000/svg" width="35.874" height="32.661" viewBox="0 0 35.874 32.661">
  <g id="Exfoliate" transform="translate(-37.062 -312.169)">
    <path id="Path_18636" data-name="Path 18636" d="M18.547,73.446c-3.4,3.487-9.626,3.819-11.867,8.146a6.215,6.215,0,0,0,5.282,9.07c2.633.1,5.007-1.441,7.243-2.835s4.8-2.745,7.38-2.221c2.445.5,4.286,2.567,6.658,3.34A6.628,6.628,0,0,0,40.024,78c-1.936-1.97-5.1-2.763-6.272-5.265a17.329,17.329,0,0,1-.8-3.288,8.59,8.59,0,0,0-7.557-6.464A3.858,3.858,0,0,0,22.145,64.1a6.268,6.268,0,0,0-1.292,3.689,8.859,8.859,0,0,1-2.306,5.658Z" transform="translate(31.063 251.684)" fill="#d6ebfe"/>
    <g id="Group_558" data-name="Group 558" transform="translate(-7.185 301.92)">
      <path id="Path_18594" data-name="Path 18594" d="M178.22,76.611l-3.631,20.53H161.727L158.1,76.611Z" transform="translate(-104.417 -61.952)" fill="#f1777a"/>
      <path id="Path_18595" data-name="Path 18595" d="M217.705,76.619l-3.629,20.529H201.213l-.82-4.641a7.666,7.666,0,0,0,10.4-5.783l.918-5.192a7.608,7.608,0,0,0-.769-4.914Z" transform="translate(-143.904 -61.96)" fill="#f4605b"/>
      <path id="Path_18596" data-name="Path 18596" d="M176.109,15.069h-15.9A2.111,2.111,0,0,0,158.1,17.18v1.979H178.22V17.18A2.111,2.111,0,0,0,176.109,15.069Z" transform="translate(-104.417 -4.5)" fill="#f0eef1"/>
      <path id="Path_18597" data-name="Path 18597" d="M178.209,17.18v1.979H158.085V17.605h17.024a.991.991,0,0,0,.991-.991,3.1,3.1,0,0,0-.412-1.546h.412a2.11,2.11,0,0,1,2.109,2.111Z" transform="translate(-104.407 -4.5)" fill="#e5e5e5"/>
      <path id="Path_18598" data-name="Path 18598" d="M225.6,390.958v-5.407H212.734v5.407a1.994,1.994,0,0,0,1.994,1.994H223.6A1.994,1.994,0,0,0,225.6,390.958Z" transform="translate(-155.425 -350.363)" fill="#f0eef1"/>
      <path id="Path_18599" data-name="Path 18599" d="M225.592,385.558v5.407a2,2,0,0,1-2,1.994h-8.874a1.993,1.993,0,0,1-1.994-1.994v-1.18a4.394,4.394,0,0,0,1.488.258h4.056a4.4,4.4,0,0,0,4.4-4.4v-.081h2.916Z" transform="translate(-155.419 -350.369)" fill="#e5e5e5"/>
      <path id="Path_18600" data-name="Path 18600" d="M212.734,439.413v1.828a1.994,1.994,0,0,0,1.994,1.994H223.6a1.994,1.994,0,0,0,1.994-1.994v-1.828Z" transform="translate(-155.425 -400.645)" fill="#f7bd85"/>
      <path id="Path_18601" data-name="Path 18601" d="M225.862,439.4v1.829a2,2,0,0,1-2,1.994h-8.874a1.994,1.994,0,0,1-1.975-1.718,2.887,2.887,0,0,0,1.4.361h7.047a2.907,2.907,0,0,0,2.873-2.466h1.52Z" transform="translate(-155.689 -400.631)" fill="#df9563"/>
      <path id="Path_18602" data-name="Path 18602" d="M265.127,439.413v.838a.915.915,0,0,0,.915.915h4.07a.915.915,0,0,0,.915-.915v-.838Z" transform="translate(-204.336 -400.645)" fill="#7c8c98"/>
      <path id="Path_18603" data-name="Path 18603" d="M65.29,135.234a7.112,7.112,0,1,1-7.111-7.111A7.113,7.113,0,0,1,65.29,135.234Z" transform="translate(-4.499 -110.041)" fill="#f0eef1"/>
      <path id="Path_18604" data-name="Path 18604" d="M74.66,144.585A7.112,7.112,0,0,1,61.1,147.59a7.113,7.113,0,0,0,9.45-9.452A7.109,7.109,0,0,1,74.66,144.585Z" transform="translate(-13.869 -119.391)" fill="#e5e5e5"/>
      <path id="Path_18605" data-name="Path 18605" d="M129.472,185.4a1.567,1.567,0,1,1-3.134,0c0-3.709,4.221-5.82,4.221-5.82A6.328,6.328,0,0,0,129.472,185.4Z" transform="translate(-74.77 -158.075)" fill="#7c8c98"/>
      <path id="Path_18606" data-name="Path 18606" d="M129.6,181.336a5.863,5.863,0,0,0-1.923,4.12,1.558,1.558,0,0,0,.9,1.415,1.524,1.524,0,0,1-.666.152,1.565,1.565,0,0,1-1.567-1.567c0-3.64,4.065-5.74,4.216-5.815a5.786,5.786,0,0,0-.958,1.695Z" transform="translate(-74.777 -158.136)" fill="#5b6c76"/>
      <g id="Group_558-2" data-name="Group 558" transform="translate(46.246 10.249)">
        <path id="Path_18607" data-name="Path 18607" d="M71.692,10.249H55.79a2.434,2.434,0,0,0-2.431,2.431v1.979a.332.332,0,0,0,0,.056l.54,3.053c-.074,0-.149-.006-.224-.006a7.433,7.433,0,1,0,2.757,14.332l.552,3.122V40.6A2.317,2.317,0,0,0,59.3,42.91h8.874A2.317,2.317,0,0,0,70.492,40.6V35.216l3.626-20.5a.331.331,0,0,0,0-.056V12.68A2.434,2.434,0,0,0,71.692,10.249ZM46.886,25.193a6.792,6.792,0,1,1,6.793,6.793A6.8,6.8,0,0,1,46.886,25.193ZM69.852,38.447H57.63V35.509H69.852Zm-8.741.64H66.37v.518a.6.6,0,0,1-.594.594h-4.07a.6.6,0,0,1-.594-.594v-.518ZM69.852,40.6a1.676,1.676,0,0,1-1.674,1.674H59.3A1.676,1.676,0,0,1,57.63,40.6V39.088h2.841v.518a1.236,1.236,0,0,0,1.235,1.235h4.07a1.236,1.236,0,0,0,1.235-1.235v-.518h2.841V40.6Zm.052-5.727H57.578l-.539-3.048a7.429,7.429,0,0,0-2.477-14l-.5-2.837h19.36Zm3.579-20.529H54V12.68a1.793,1.793,0,0,1,1.791-1.791h15.9a1.793,1.793,0,0,1,1.791,1.791v1.658Z" transform="translate(-46.246 -10.249)" fill="#000013"/>
        <path id="Path_18608" data-name="Path 18608" d="M125.917,174.79c-.179.09-4.4,2.243-4.4,6.106a1.887,1.887,0,0,0,3.774,0,.322.322,0,0,0-.013-.09,5.957,5.957,0,0,1,1.017-5.515.32.32,0,0,0-.381-.5Zm-1.265,6.149a1.247,1.247,0,0,1-2.493-.043c0-2.235,1.667-3.881,2.86-4.773A6.694,6.694,0,0,0,124.652,180.939Z" transform="translate(-116.517 -163.825)" fill="#000013"/>
      </g>
    </g>
  </g>
</svg>
