<svg xmlns="http://www.w3.org/2000/svg" xmlns:xlink="http://www.w3.org/1999/xlink" width="35.874" height="32.037" viewBox="0 0 35.874 32.037">
  <defs>
    <clipPath id="clip-path">
      <path id="Path_18574" data-name="Path 18574" d="M0-682.665H32.036v32.036H0Z" transform="translate(0 682.665)"/>
    </clipPath>
  </defs>
  <g id="Protect" transform="translate(-35.062 -312.481)">
    <path id="Path_18638" data-name="Path 18638" d="M18.547,73.446c-3.4,3.487-9.626,3.819-11.867,8.146a6.215,6.215,0,0,0,5.282,9.07c2.633.1,5.007-1.441,7.243-2.835s4.8-2.745,7.38-2.221c2.445.5,4.286,2.567,6.658,3.34A6.628,6.628,0,0,0,40.024,78c-1.936-1.97-5.1-2.763-6.272-5.265a17.329,17.329,0,0,1-.8-3.288,8.59,8.59,0,0,0-7.557-6.464A3.858,3.858,0,0,0,22.145,64.1a6.268,6.268,0,0,0-1.292,3.689,8.859,8.859,0,0,1-2.306,5.658Z" transform="translate(29.063 253.852)" fill="#d6ebfe"/>
    <g id="Group_316" data-name="Group 316" transform="translate(36.981 312.479)">
      <g id="Group_315" data-name="Group 315" transform="translate(0 0.002)" clip-path="url(#clip-path)">
        <path id="Path_18562" data-name="Path 18562" d="M-44.812-463.943a7.534,7.534,0,0,0,10.654,0l9.983-9.983a7.533,7.533,0,0,0,0-10.654,7.533,7.533,0,0,0-10.654,0l-9.983,9.983a7.534,7.534,0,0,0,0,10.654" transform="translate(53.379 490.279)" fill="#f5737f"/>
        <path id="Path_18563" data-name="Path 18563" d="M-146.7,0l-5.017,5.017a7.533,7.533,0,0,0,0,10.654h0a7.534,7.534,0,0,0,10.654,0l5.017-5.017Z" transform="translate(160.278 10.666)" fill="#fff"/>
        <path id="Path_18564" data-name="Path 18564" d="M-230.021,1.767a.626.626,0,0,1-.624-.582,8.159,8.159,0,0,1,2.37-6.343l7.992-7.992a.626.626,0,0,1,.885,0,.626.626,0,0,1,0,.885l-7.992,7.992A6.909,6.909,0,0,0-229.4,1.1a.626.626,0,0,1-.58.668Z" transform="translate(236.398 20.397)"/>
        <path id="Path_18565" data-name="Path 18565" d="M-11.059-517.193a8.251,8.251,0,0,1-1.787-.2.626.626,0,0,1-.475-.746.626.626,0,0,1,.746-.475,6.883,6.883,0,0,0,6.387-1.859L3.8-530.454a6.863,6.863,0,0,0,2.023-4.885A6.863,6.863,0,0,0,3.8-540.223a6.873,6.873,0,0,0-7.636-1.454A.626.626,0,0,1-4.663-542a.626.626,0,0,1,.325-.823,8.118,8.118,0,0,1,9.019,1.717,8.106,8.106,0,0,1,2.39,5.769,8.106,8.106,0,0,1-2.39,5.77L-5.3-519.586A8.121,8.121,0,0,1-11.059-517.193Z" transform="translate(24.966 546.364)"/>
        <path id="Path_18566" data-name="Path 18566" d="M-223.055-222.429a.624.624,0,0,1-.442-.183l-10.357-10.357a.626.626,0,0,1,0-.885.626.626,0,0,1,.885,0l10.357,10.357a.626.626,0,0,1,0,.885A.624.624,0,0,1-223.055-222.429Z" transform="translate(247.119 244.251)"/>
        <path id="Path_18567" data-name="Path 18567" d="M-162-4.367a6.334,6.334,0,0,0-6.121,1.641,6.334,6.334,0,0,0-1.641,6.121,6.334,6.334,0,0,0,6.121-1.641A6.334,6.334,0,0,0-162-4.367" transform="translate(178.794 24.934)" fill="#e2f1a1"/>
        <path id="Path_18568" data-name="Path 18568" d="M-176.317-17.915h0a6.989,6.989,0,0,1,1.8.236.626.626,0,0,1,.443.443,6.988,6.988,0,0,1-1.8,6.725A6.916,6.916,0,0,1-180.8-8.472a6.989,6.989,0,0,1-1.8-.236.626.626,0,0,1-.443-.443,6.988,6.988,0,0,1,1.8-6.725A6.916,6.916,0,0,1-176.317-17.915Zm1.12,1.362a5.743,5.743,0,0,0-1.12-.11,5.673,5.673,0,0,0-4.038,1.672,5.734,5.734,0,0,0-1.562,5.158,5.743,5.743,0,0,0,1.12.11,5.673,5.673,0,0,0,4.038-1.672A5.734,5.734,0,0,0-175.2-16.554Z" transform="translate(191.47 37.642)"/>
        <path id="Path_18569" data-name="Path 18569" d="M-12.708-76.911a.624.624,0,0,1-.442-.183.626.626,0,0,1,0-.885l3.192-3.192a.626.626,0,0,1,.885,0,.626.626,0,0,1,0,.885l-3.192,3.192A.624.624,0,0,1-12.708-76.911Z" transform="translate(21.74 105.866)"/>
        <path id="Path_18570" data-name="Path 18570" d="M-4.367-4.367A6.334,6.334,0,0,1,1.754-2.727,6.334,6.334,0,0,1,3.394,3.394,6.334,6.334,0,0,1-2.727,1.754,6.334,6.334,0,0,1-4.367-4.367" transform="translate(5.208 24.934)" fill="#e2f1a1"/>
        <path id="Path_18571" data-name="Path 18571" d="M-15.4-17.915a6.916,6.916,0,0,1,4.923,2.039,6.988,6.988,0,0,1,1.8,6.725.626.626,0,0,1-.443.443,6.989,6.989,0,0,1-1.8.236,6.916,6.916,0,0,1-4.923-2.039,6.988,6.988,0,0,1-1.8-6.725.626.626,0,0,1,.443-.443A6.989,6.989,0,0,1-15.4-17.915Zm5.6,8.082a5.734,5.734,0,0,0-1.562-5.158A5.673,5.673,0,0,0-15.4-16.664a5.743,5.743,0,0,0-1.12.11A5.734,5.734,0,0,0-14.96-11.4a5.673,5.673,0,0,0,4.038,1.672A5.743,5.743,0,0,0-9.8-9.834Z" transform="translate(17.884 37.642)"/>
        <path id="Path_18572" data-name="Path 18572" d="M-77.537-76.911a.624.624,0,0,1-.442-.183l-3.192-3.192a.626.626,0,0,1,0-.885.626.626,0,0,1,.885,0l3.192,3.192a.626.626,0,0,1,0,.885A.624.624,0,0,1-77.537-76.911Z" transform="translate(86.139 105.866)"/>
        <path id="Path_18573" data-name="Path 18573" transform="translate(18.55 5.699)"/>
      </g>
    </g>
  </g>
</svg>
