<svg xmlns="http://www.w3.org/2000/svg" width="24" height="24" viewBox="0 0 24 24">
  <g id="CosmeticTattoo" transform="translate(-24 -759.5)">
    <rect id="Rectangle_11" data-name="Rectangle 11" width="24" height="24" rx="5" transform="translate(24 759.5)" fill="#ebeef2"/>
    <g id="Group_1029" data-name="Group 1029" transform="translate(-1391.706 5452.206)">
      <path id="Path_18584" data-name="Path 18584" d="M40.306,14.951a.183.183,0,0,1,.018.14.185.185,0,0,1-.086.112.183.183,0,0,1-.14.018.185.185,0,0,1-.112-.086.183.183,0,0,1-.018-.14.185.185,0,0,1,.086-.112.182.182,0,0,1,.14-.019A.186.186,0,0,1,40.306,14.951Zm-1.229.71a.185.185,0,0,1-.208.271.185.185,0,0,1-.112-.086.185.185,0,0,1,.208-.271.186.186,0,0,1,.113.087Zm-.04-1.981.205-.118.266.461-.205.118Zm-.954.551.205-.118.266.461-.205.118Zm.367-3.989-2.844,1.642a1.261,1.261,0,0,1-.033-.2.561.561,0,0,1,.284-.546l1.824-1.053a.562.562,0,0,1,.615.027A1.211,1.211,0,0,1,38.45,10.242Zm.433.748-2.845,1.643a2.331,2.331,0,0,1-.3-.422l2.934-1.694A2.332,2.332,0,0,1,38.883,10.99Z" transform="translate(1385.709 -4698.01)" fill="#09101d"/>
      <path id="Path_18585" data-name="Path 18585" d="M61.407,52.745a.561.561,0,0,1-.284.546l-.912.526-.912.526a.56.56,0,0,1-.615-.027,2.371,2.371,0,0,1-.758-1.474,6.492,6.492,0,0,0-.366-1.11.912.912,0,0,0-.082-.142,6.461,6.461,0,0,0-.778-.872c-.064-.064-.128-.127-.189-.189l2.7-1.561c.024.084.046.17.069.258a6.492,6.492,0,0,0,.366,1.11.911.911,0,0,0,.082.142,6.461,6.461,0,0,0,.778.872,2.366,2.366,0,0,1,.9,1.393Zm-.519.074a.534.534,0,1,0-.248.323A.528.528,0,0,0,60.888,52.819Zm-.826-.945a.173.173,0,0,0,.063-.237l-.44-.762a.173.173,0,0,0-.237-.063l-.506.292a.174.174,0,0,0-.064.237l.44.762a.173.173,0,0,0,.15.087.178.178,0,0,0,.087-.023Zm-.4,1.655a.532.532,0,1,0-.514.395.534.534,0,0,0,.265-.071A.529.529,0,0,0,59.659,53.529Zm-.379-2.994a.174.174,0,1,0-.174-.3l-1.447.836a.174.174,0,0,0,.087.324.169.169,0,0,0,.087-.023Zm-.172,1.89a.173.173,0,0,0,.063-.237l-.44-.762a.173.173,0,0,0-.237-.063l-.506.292a.174.174,0,0,0-.064.237l.44.762a.174.174,0,0,0,.105.081.182.182,0,0,0,.045.006.176.176,0,0,0,.087-.023Zm-.163-2.471a.174.174,0,1,0-.174-.3l-1.447.836a.174.174,0,0,0,.087.324.169.169,0,0,0,.087-.023Zm.576,7.078a.4.4,0,0,1,.4.4,1.083,1.083,0,0,1-.178.542l0,0a5.448,5.448,0,0,1-.8.94,5.431,5.431,0,0,1-.8-.943,1.08,1.08,0,0,1-.178-.542.4.4,0,0,1,.4-.4c.194,0,.293.079.422.337a.174.174,0,0,0,.311,0C59.228,57.111,59.327,57.032,59.521,57.032Z" transform="translate(1365.48 -4735.648)" fill="#09101d"/>
      <path id="Path_18586" data-name="Path 18586" d="M32.258,22.1a.472.472,0,0,1-.007.932H29.532a.174.174,0,0,0,0,.347h2.722a.472.472,0,0,1,0,.932H29.532a.174.174,0,0,0,0,.347H32.25a.472.472,0,0,1,0,.932H28.4a.173.173,0,0,0-.1.314l1.35.972a.523.523,0,0,1,.157.653.408.408,0,0,1-.254.214.348.348,0,0,1-.281-.046l-.012-.007c-.248-.132-.571-.283-.912-.443-1.076-.5-2.55-1.191-2.939-1.913a.173.173,0,0,0-.153-.091H18.65V21.821h6.636a.173.173,0,0,0,.153-.093c.317-.6,1.372-.907,3.136-.907H32.25a.472.472,0,0,1,0,.932H29.532a.174.174,0,0,0,0,.347h2.726Zm-7.868,1.483a.174.174,0,0,0-.174-.174H23.6a1.214,1.214,0,0,0,.094-.454.752.752,0,0,0-.751-.751.687.687,0,0,0-.577.275.688.688,0,0,0-.577-.275.752.752,0,0,0-.751.751,1.215,1.215,0,0,0,.094.454h-.672l.121-.121a.174.174,0,0,0-.246-.246l-.417.417a.159.159,0,0,0-.031.043.14.14,0,0,0-.007.015h0c0,.005,0,.01-.005.015a.188.188,0,0,0-.006.031.143.143,0,0,0,0,.017h0a.181.181,0,0,0,0,.033c0,.006,0,.013,0,.019a.145.145,0,0,0,.005.015l.007.015a.071.071,0,0,0,.009.014.149.149,0,0,0,.021.026h0l.417.417a.174.174,0,0,0,.123.051.172.172,0,0,0,.122-.051.174.174,0,0,0,0-.246l-.121-.121h.856a7.06,7.06,0,0,0,.926,1.053.174.174,0,0,0,.246,0,7.043,7.043,0,0,0,.926-1.053h.8a.173.173,0,0,0,.174-.173Zm7.633-5.99a.185.185,0,0,1,0,.261l-1.577,1.577h-.864l-.377-.377,2.14-2.14Zm-.8-1.045,0,0-.456.455-2.917-2.917.457-.457Zm-3.284-3.041-2.14,2.14-.174-.174a.185.185,0,0,1,0-.261L27.5,13.334a.184.184,0,0,1,.261,0Zm-1.314,1.8.977-.977,2.916,2.916-.977.977Zm2.673,3.161-.455.456h0L25.92,16.014l.457-.457ZM24.6,21.016a.173.173,0,0,1-.237-.063l-.708-1.227.3-.174.708,1.227A.174.174,0,0,1,24.6,21.016Z" transform="translate(1402.056 -4701.169)" fill="#09101d"/>
    </g>
  </g>
</svg>
