<svg xmlns="http://www.w3.org/2000/svg" width="24" height="24" viewBox="0 0 24 24">
  <g id="Cosmetic_" data-name="Cosmetic " transform="translate(-219 -718.5)">
    <rect id="Rectangle_9" data-name="Rectangle 9" width="24" height="24" rx="5" transform="translate(219 718.5)" fill="#ebeef2"/>
    <g id="Group_568" data-name="Group 568" transform="translate(217.417 702.644)">
      <path id="Path_18579" data-name="Path 18579" d="M7.007,24.1A.994.994,0,1,1,8.24,22.575,5.3,5.3,0,0,0,7.007,24.1Zm2.742,3.663a1.114,1.114,0,0,1,.1-.482.9.9,0,0,1,.3-.361.728.728,0,0,1,.445-.13.719.719,0,0,1,.165.027l.124-.094a8.031,8.031,0,0,1,3.752-1.558,1.248,1.248,0,0,0-.174-.363,1.453,1.453,0,0,0-.6-.509.2.2,0,1,1,.151-.367,1.871,1.871,0,0,1,.779.652,1.614,1.614,0,0,1,.244.541,7.946,7.946,0,0,1,.826-.029c.306,0,.443-.186.359-.384A4.924,4.924,0,0,0,7.2,24.6a5.529,5.529,0,0,0,.758,5.34c.255.177.466-.129.481-.162a7.991,7.991,0,0,1,1.1-1.766l.207-.252Zm6.913,1.123c.278.43.294.723-.288.782a.813.813,0,0,0-.507.157c-.063.071.008.22.038.373.079.159.073.314-.147.369-.077.019-.256.065-.409.1.012.007.1.039.207.092s.236.1.288.2a.3.3,0,0,1-.184.421c-.082.056-.066.3-.106.554-.148.929-.777.564-1.5.464-.578-.081-.93,0-1.18.554-.076.17-.139.361-.2.538H9.053a5.873,5.873,0,0,0-.312-3.446.476.476,0,0,0,.062-.1,7.586,7.586,0,0,1,1.047-1.678,2.278,2.278,0,0,0,.2.419,1.394,1.394,0,0,0,.369.411.657.657,0,0,0,.548.118.7.7,0,0,0,.2-.086.2.2,0,1,0-.208-.337.308.308,0,0,1-.088.038.279.279,0,0,1-.227-.057,1,1,0,0,1-.259-.295,1.831,1.831,0,0,1-.213-.5.79.79,0,0,1,.037-.526.5.5,0,0,1,.165-.2.328.328,0,0,1,.2-.061.42.42,0,0,1,.259.121.2.2,0,0,0,.289-.268,7.61,7.61,0,0,1,4.73-1.551h.031a2.744,2.744,0,0,1,.135.462,5.933,5.933,0,0,1-.012,1.731,3.952,3.952,0,0,0,.653,1.2Zm-3.716-1.838a.2.2,0,0,0,.263-.1l.172-.372a.2.2,0,1,0-.36-.166l-.172.372a.2.2,0,0,0,.1.263Zm-.274,1.269a.2.2,0,0,0,.229-.162l.07-.4a.2.2,0,1,0-.391-.067l-.07.4A.2.2,0,0,0,12.672,28.313Zm.063,1.3a.2.2,0,0,0,.179-.215l-.037-.408a.2.2,0,1,0-.394.036l.037.408a.2.2,0,0,0,.215.179Zm.515.981-.141-.384a.2.2,0,1,0-.373.137l.141.384a.2.2,0,1,0,.373-.137Zm.633,1.069-.236-.335a.2.2,0,1,0-.325.228l.236.335a.2.2,0,1,0,.325-.228Zm1.361-4.408a.2.2,0,0,0-.273.061.257.257,0,0,1-.093.086h0a.263.263,0,0,1-.239,0l-.007,0a.257.257,0,0,1-.093-.087.2.2,0,1,0-.334.213.653.653,0,0,0,.236.222l.013.007a.648.648,0,0,0,.614-.007h0a.653.653,0,0,0,.236-.222.2.2,0,0,0-.061-.273Zm2.17.078.014,0,.735-.2.014,0-.423-1.151-.133.036-.349-1.3a.146.146,0,1,0-.281.076l.349,1.3-.135.036.209,1.208ZM20.241,31.8a.233.233,0,0,0-.284-.164l-.159.043-.217-.81-.415.111a.2.2,0,1,1-.1-.383l.415-.111-.114-.426-.415.111a.2.2,0,0,1-.1-.383l.415-.111-.114-.426-.415.111a.2.2,0,1,1-.1-.383l.415-.111-.114-.426-.415.111a.2.2,0,1,1-.1-.383l.415-.111-.071-.264a.4.4,0,0,0-.49-.283l-.735.2a.4.4,0,0,0-.283.49l1.041,3.884-.159.043a.232.232,0,0,0,.12.448l1.827-.49a.233.233,0,0,0,.164-.284Zm.417,2.5a.311.311,0,0,0-.38-.219l-.245.066-.409-1.525-.716.192.409,1.525-.245.066a.31.31,0,0,0,.161.6l1.206-.323a.311.311,0,0,0,.219-.38Z" fill="#09101d" fill-rule="evenodd"/>
    </g>
  </g>
</svg>
