<svg xmlns="http://www.w3.org/2000/svg" width="24" height="24" viewBox="0 0 24 24">
  <g id="Laser_" data-name="Laser " transform="translate(-24 -759.5)">
    <rect id="Rectangle_11" data-name="Rectangle 11" width="24" height="24" rx="5" transform="translate(24 759.5)" fill="#ebeef2"/>
    <g id="Group_1023" data-name="Group 1023" transform="translate(-1392.536 5633.986)">
      <path id="Path_18691" data-name="Path 18691" d="M19.222,8.362a.618.618,0,0,0,0,.872l1.961,1.961a.618.618,0,0,0,.872,0l4.359-4.362L23.581,4Zm-.761,1.853a1.23,1.23,0,0,0-.188,1.5l-2.247,2.247a.307.307,0,1,0,.435.435l2.251-2.247A1.259,1.259,0,0,0,20.2,11.96l.435-.438L18.9,9.78Zm-2.1,5.071a.308.308,0,0,0-.308.308v.925a.308.308,0,0,0,.616,0v-.925a.308.308,0,0,0-.308-.308Zm-1.233-1.233a.308.308,0,0,0-.308-.308H13.9a.308.308,0,1,0,0,.617h.925a.308.308,0,0,0,.308-.308Zm.053.872a.307.307,0,0,0-.218.09l-.654.654a.308.308,0,1,0,.436.436l.654-.654a.31.31,0,0,0-.218-.526Z" transform="translate(1407.791 -4870.689)" fill="#09101d"/>
      <path id="Path_18692" data-name="Path 18692" d="M8.092,43.084H9.325a1.542,1.542,0,0,0,1.541-1.541V39.384a.925.925,0,1,1,1.85,0v2.158a1.541,1.541,0,0,0,3.083,0V40.309a.927.927,0,0,1,.925-.925h4.424a.925.925,0,0,1,.728,1.5,1.994,1.994,0,0,0-2.593.2l-.765.761,2.833,2.833.765-.761a2,2,0,0,0,.2-2.6,1.541,1.541,0,0,0-1.165-2.547H16.724a1.544,1.544,0,0,0-1.541,1.541v1.233a.925.925,0,0,1-1.849,0V39.384a1.542,1.542,0,0,0-3.083,0v2.158a.926.926,0,0,1-.925.925H8.092a.308.308,0,0,0,0,.616Z" transform="translate(1413.289 -4908.968)" fill="#09101d"/>
    </g>
  </g>
</svg>
