<svg xmlns="http://www.w3.org/2000/svg" width="24" height="24" viewBox="0 0 24 24">
  <g id="Group_1016" data-name="Group 1016" transform="translate(-24 -718.5)">
    <rect id="Rectangle_7" data-name="Rectangle 7" width="24" height="24" rx="5" transform="translate(24 718.5)" fill="#ebeef2"/>
    <g id="Group_567" data-name="Group 567" transform="translate(29.911 723.609)">
      <path id="Path_18575" data-name="Path 18575" d="M23.244,4.932a1.963,1.963,0,0,1,1,.253,7.628,7.628,0,0,1,1.708.691,3,3,0,0,0-2.78-1.887h-.32A3,3,0,0,0,20.07,5.87a8.114,8.114,0,0,1,3-.935c.064,0,.121,0,.175,0Z" transform="translate(-16.92 -3.99)" fill="#09101d"/>
      <path id="Path_18576" data-name="Path 18576" d="M10.873,16.209a.641.641,0,0,1,.485-.219.662.662,0,0,1,.583.352,2.306,2.306,0,0,0,.367.495l.052-.755s-.17-2.527,4.3-3.469a.958.958,0,0,0,.312-.125,1.473,1.473,0,0,0,.63-1.575,1.447,1.447,0,0,0-1.562-1.085A6.643,6.643,0,0,0,11.9,11.8a4.829,4.829,0,0,0-1.127,3.942s.027.187.1.467Z" transform="translate(-9.856 -8.387)" fill="#09101d"/>
      <path id="Path_18577" data-name="Path 18577" d="M26.066,17.368a4.829,4.829,0,0,0-1.127-3.942A5.115,5.115,0,0,0,22.87,11.98a1.858,1.858,0,0,1,.175.45l0,.034a1.959,1.959,0,0,1-.851,2.064,1.445,1.445,0,0,1-.431.177c2.839,1.122,2.716,3,2.716,3l.1,1.484-.185.647a3.67,3.67,0,0,1-3.568,2.6,3.632,3.632,0,0,1-3.184-2.069,2.645,2.645,0,0,0-.369.349,4.212,4.212,0,0,0,1.442,1.572v1.144a.357.357,0,0,0,.357.357h3.533a.357.357,0,0,0,.354-.357V22.376a4.156,4.156,0,0,0,1.882-2.33.1.1,0,0,0,.032-.017,5.527,5.527,0,0,0,1.186-2.66Z" transform="translate(-14.816 -10.014)" fill="#09101d"/>
      <path id="Path_18578" data-name="Path 18578" d="M12.966,35.018a.246.246,0,0,0-.391-.3.714.714,0,0,1-1.142,0,.246.246,0,0,0-.391.3,1.2,1.2,0,0,0,1.924,0Zm2.953,0a.246.246,0,0,0-.391-.3.714.714,0,0,1-1.142,0,.246.246,0,0,0-.391.3,1.2,1.2,0,0,0,1.924,0Zm-2.441,2.916a1.3,1.3,0,0,0,.873-.305.246.246,0,0,0-.33-.364.913.913,0,0,1-1.088,0,.246.246,0,0,0-.33.364A1.309,1.309,0,0,0,13.477,37.934Zm-3.29-1.42a3.3,3.3,0,0,1-1.27-1.243.165.165,0,0,0-.293-.007,3.262,3.262,0,0,1-1.272,1.252.164.164,0,0,0,0,.288,3.212,3.212,0,0,1,1.282,1.277.165.165,0,0,0,.29.007,3.328,3.328,0,0,1,1.26-1.287.166.166,0,0,0,.01-.29Zm9.178,2.478a2.412,2.412,0,0,1-.839-.817.169.169,0,0,0-.293,0,2.418,2.418,0,0,1-.839.824.166.166,0,0,0,0,.288,2.376,2.376,0,0,1,.849.844.166.166,0,0,0,.288.007,2.507,2.507,0,0,1,.829-.854A.166.166,0,0,0,19.365,38.992Z" transform="translate(-7.266 -27.086)" fill="#09101d"/>
    </g>
  </g>
</svg>
