<svg xmlns="http://www.w3.org/2000/svg" width="37.938" height="35" viewBox="0 0 37.938 35">
  <g id="Cleanser" transform="translate(-33.062 -311.5)">
    <path id="Path_18637" data-name="Path 18637" d="M18.547,73.446c-3.4,3.487-9.626,3.819-11.867,8.146a6.215,6.215,0,0,0,5.282,9.07c2.633.1,5.007-1.441,7.243-2.835s4.8-2.745,7.38-2.221c2.445.5,4.286,2.567,6.658,3.34A6.628,6.628,0,0,0,40.024,78c-1.936-1.97-5.1-2.763-6.272-5.265a17.329,17.329,0,0,1-.8-3.288,8.59,8.59,0,0,0-7.557-6.464A3.858,3.858,0,0,0,22.145,64.1a6.268,6.268,0,0,0-1.292,3.689,8.859,8.859,0,0,1-2.306,5.658Z" transform="translate(27.063 254.684)" fill="#d6ebfe"/>
    <g id="Group_557" data-name="Group 557" transform="translate(36 311.5)">
      <path id="Path_18591" data-name="Path 18591" d="M64,152h7.9v18.065H64Z" transform="translate(-59.484 -141.274)" fill="#f0bc5e"/>
      <path id="Path_18592" data-name="Path 18592" d="M31.048,27.1H30.3L29.863,26a7.2,7.2,0,0,0-6.718-4.548h-.565v.565a2.826,2.826,0,0,1-2.823,2.823h-.3a3.643,3.643,0,0,0-2.527,1.02V10.593L15.026,6.774H13.548V4.516H12.419V3.387h2.258V0H6.21A1.7,1.7,0,0,0,4.516,1.694V4.516H3.387V6.774H1.909L0,10.593V29.919a2.826,2.826,0,0,0,2.823,2.823H13.605A2.827,2.827,0,0,0,16.371,35H31.048a3.952,3.952,0,0,0,0-7.9ZM15.806,11.29V28.226H1.129V11.29ZM5.645,1.694a.565.565,0,0,1,.565-.565h7.339V2.258H11.29V4.516H5.645ZM2.607,7.9h7.554V6.774H4.516V5.645h7.9V6.774H11.29V7.9h3.038l1.129,2.258H1.478Zm11,23.71H2.823a1.7,1.7,0,0,1-1.694-1.694v-.565H15.806v.057A2.831,2.831,0,0,0,13.605,31.613Zm17.443,2.258H16.371a1.694,1.694,0,1,1,0-3.387h5.645V29.355H16.935V28.5a2.53,2.53,0,0,1,2.527-2.527h.3A3.958,3.958,0,0,0,23.666,22.6a6.074,6.074,0,0,1,5.148,3.817l.272.678H26.532v1.129h4.516a2.823,2.823,0,0,1,0,5.645Z"/>
      <path id="Path_18593" data-name="Path 18593" d="M59.661,194.629h2.258v1.129H59.661Zm-4.516,0H57.4v1.129H55.145ZM32,178.258h1.129v6.774H32ZM37.081,176h2.258v1.129H37.081Zm0,2.258h2.258v1.129H37.081Zm0,2.258h2.258v1.129H37.081Zm0,2.258h2.258V183.9H37.081Zm0,2.258h2.258v1.129H37.081Zm0,2.258h2.258v1.129H37.081Zm0,2.258h2.258v1.129H37.081ZM32,176h1.129v1.129H32Z" transform="translate(-29.742 -163.581)"/>
    </g>
  </g>
</svg>
