<svg xmlns="http://www.w3.org/2000/svg" width="32.715" height="31.972" viewBox="0 0 32.715 31.972">
  <g id="Hydrate" transform="translate(-0.293 -1.027)">
    <path id="Path_18609" data-name="Path 18609" d="M32.318,12.8c0-2.849-5.159-9.8-5.159-9.8S22,9.953,22,12.8a5.159,5.159,0,1,0,10.318,0Z" transform="translate(-10.509 -0.955)" fill="#55b4f0"/>
    <path id="Path_18610" data-name="Path 18610" d="M26,11.908a5.159,5.159,0,0,0,7.119,4.771,5.136,5.136,0,0,0,1.135-3.223c0-2.3-3.362-7.274-4.657-9.106C28.079,6.638,26,10.1,26,11.908Z" transform="translate(-12.445 -1.609)" fill="#7fc8f3"/>
    <path id="Path_18611" data-name="Path 18611" d="M27,20.611A3.611,3.611,0,0,1,30.611,17h1.548v1.548a3.611,3.611,0,0,1-3.611,3.611H27Z" transform="translate(-12.929 -7.733)" fill="#98c05c"/>
    <path id="Path_18612" data-name="Path 18612" d="M1,36H32.985V49.413H1Z" transform="translate(-0.342 -16.931)" fill="#ffe2d5"/>
    <path id="Path_18613" data-name="Path 18613" d="M29.374,40a2.491,2.491,0,0,0-1.761.73l-.6.6a2.491,2.491,0,0,1-3.523,0l-.6-.6a2.491,2.491,0,0,0-3.523,0l-.6.6a2.491,2.491,0,0,1-3.523,0l-.6-.6a2.491,2.491,0,0,0-3.523,0l-.6.6a2.491,2.491,0,0,1-3.523,0l-.6-.6a2.491,2.491,0,0,0-3.523,0L1,42.579v8.77H32.985v-8.77l-1.85-1.85A2.491,2.491,0,0,0,29.374,40Z" transform="translate(-0.342 -18.867)" fill="#e2b2aa"/>
    <g id="Group_559" data-name="Group 559" transform="translate(2.721 24.228)">
      <circle id="Ellipse_18" data-name="Ellipse 18" cx="1.548" cy="1.548" r="1.548" fill="#c99a93"/>
      <circle id="Ellipse_19" data-name="Ellipse 19" cx="1.548" cy="1.548" r="1.548" transform="translate(8.254)" fill="#c99a93"/>
      <circle id="Ellipse_20" data-name="Ellipse 20" cx="1.548" cy="1.548" r="1.548" transform="translate(16.509)" fill="#c99a93"/>
      <circle id="Ellipse_21" data-name="Ellipse 21" cx="1.548" cy="1.548" r="1.548" transform="translate(24.763)" fill="#c99a93"/>
    </g>
    <circle id="Ellipse_22" data-name="Ellipse 22" cx="1.032" cy="1.032" r="1.032" transform="translate(7.364 27.787)" fill="#ffd2c0"/>
    <circle id="Ellipse_23" data-name="Ellipse 23" cx="1.032" cy="1.032" r="1.032" transform="translate(15.619 27.839)" fill="#ffd2c0"/>
    <circle id="Ellipse_24" data-name="Ellipse 24" cx="1.032" cy="1.032" r="1.032" transform="translate(23.873 27.839)" fill="#ffd2c0"/>
    <circle id="Ellipse_25" data-name="Ellipse 25" cx="0.516" cy="0.516" r="0.516" transform="translate(12.007 31.451)" fill="#c99a93"/>
    <circle id="Ellipse_26" data-name="Ellipse 26" cx="0.516" cy="0.516" r="0.516" transform="translate(20.262 31.451)" fill="#c99a93"/>
    <circle id="Ellipse_27" data-name="Ellipse 27" cx="0.516" cy="0.516" r="0.516" transform="translate(28.516 31.451)" fill="#c99a93"/>
    <circle id="Ellipse_28" data-name="Ellipse 28" cx="0.516" cy="0.516" r="0.516" transform="translate(3.753 31.451)" fill="#c99a93"/>
    <path id="Path_18614" data-name="Path 18614" d="M31.675,16H30.127A4.132,4.132,0,0,0,26,20.127v1.548a.516.516,0,0,0,.516.516h1.548a4.132,4.132,0,0,0,4.127-4.127V16.516A.516.516,0,0,0,31.675,16Zm-1.548,1.032h.3l-3.4,3.4v-.3a3.1,3.1,0,0,1,3.1-3.1Zm-2.064,4.127h-.3l3.4-3.4v.3A3.1,3.1,0,0,1,28.064,21.159Z" transform="translate(-12.445 -7.249)" fill="#759d47"/>
    <path id="Path_18615" data-name="Path 18615" d="M9.1,24.1c0-.855-1.548-3.1-1.548-3.1S6,23.241,6,24.1a1.548,1.548,0,0,0,3.1,0Z" transform="translate(-2.763 -9.669)" fill="#55b4f0"/>
    <path id="Path_18616" data-name="Path 18616" d="M8.715,21.579A4.777,4.777,0,0,0,8,23.344a1.527,1.527,0,0,0,1.991,1.475,1.539,1.539,0,0,0,.072-.444A8.357,8.357,0,0,0,8.715,21.579Z" transform="translate(-3.731 -9.95)" fill="#7fc8f3"/>
    <path id="Path_18617" data-name="Path 18617" d="M18.1,5.1c0-.855-1.548-3.1-1.548-3.1S15,4.241,15,5.1a1.548,1.548,0,1,0,3.1,0Z" transform="translate(-7.12 -0.471)" fill="#55b4f0"/>
    <path id="Path_18618" data-name="Path 18618" d="M17.715,2.579A4.777,4.777,0,0,0,17,4.344a1.527,1.527,0,0,0,1.991,1.475,1.539,1.539,0,0,0,.072-.444A8.357,8.357,0,0,0,17.715,2.579Z" transform="translate(-8.088 -0.752)" fill="#7fc8f3"/>
    <path id="Path_18619" data-name="Path 18619" d="M55.1,11.1c0-.855-1.548-3.1-1.548-3.1S52,10.241,52,11.1a1.548,1.548,0,1,0,3.1,0Z" transform="translate(-25.032 -3.376)" fill="#55b4f0"/>
    <path id="Path_18620" data-name="Path 18620" d="M54.715,8.579A4.777,4.777,0,0,0,54,10.344a1.527,1.527,0,0,0,1.991,1.475,1.539,1.539,0,0,0,.072-.444A8.357,8.357,0,0,0,54.715,8.579Z" transform="translate(-26 -3.656)" fill="#7fc8f3"/>
    <path id="Path_18621" data-name="Path 18621" d="M.658,35H32.643v1.032H.658Zm28.374,2.064a2.985,2.985,0,0,0-2.126.881l-.6.6a2.024,2.024,0,0,1-2.793,0l-.6-.6a3.007,3.007,0,0,0-4.252,0l-.6.6a2.024,2.024,0,0,1-2.793,0l-.6-.6a3.007,3.007,0,0,0-4.252,0l-.6.6a2.024,2.024,0,0,1-2.793,0l-.6-.6a3.007,3.007,0,0,0-4.252,0l-1.85,1.85.729.729,1.85-1.85a2.024,2.024,0,0,1,2.793,0l.6.6a3.007,3.007,0,0,0,4.252,0l.6-.6a2.024,2.024,0,0,1,2.793,0l.6.6a3.007,3.007,0,0,0,4.252,0l.6-.6a2.024,2.024,0,0,1,2.793,0l.6.6a3.007,3.007,0,0,0,4.252,0l.6-.6a2.024,2.024,0,0,1,2.793,0l1.85,1.85.729-.729-1.85-1.85A2.985,2.985,0,0,0,29.032,37.064Z" transform="translate(0 -16.447)"/>
    <path id="Path_18622" data-name="Path 18622" d="M6.064,45a2.064,2.064,0,1,0,2.064,2.064A2.064,2.064,0,0,0,6.064,45Zm0,3.1A1.032,1.032,0,1,1,7.1,47.064,1.032,1.032,0,0,1,6.064,48.1ZM14.318,45a2.064,2.064,0,1,0,2.064,2.064A2.064,2.064,0,0,0,14.318,45Zm0,3.1a1.032,1.032,0,1,1,1.032-1.032A1.032,1.032,0,0,1,14.318,48.1ZM22.572,45a2.064,2.064,0,1,0,2.064,2.064A2.064,2.064,0,0,0,22.572,45Zm0,3.1A1.032,1.032,0,1,1,23.6,47.064,1.032,1.032,0,0,1,22.572,48.1ZM30.826,45a2.064,2.064,0,1,0,2.064,2.064A2.064,2.064,0,0,0,30.826,45Zm0,3.1a1.032,1.032,0,1,1,1.032-1.032A1.032,1.032,0,0,1,30.826,48.1Zm-20.636.464a1.548,1.548,0,1,0,1.548,1.548A1.548,1.548,0,0,0,10.191,48.56Zm0,2.064a.516.516,0,1,1,.516-.516A.516.516,0,0,1,10.191,50.623Zm8.254-2.012a1.548,1.548,0,1,0,1.548,1.548A1.548,1.548,0,0,0,18.445,48.611Zm0,2.064a.516.516,0,1,1,.516-.516A.516.516,0,0,1,18.445,50.675ZM26.7,48.611a1.548,1.548,0,1,0,1.548,1.548A1.548,1.548,0,0,0,26.7,48.611Zm0,2.064a.516.516,0,1,1,.516-.516A.516.516,0,0,1,26.7,50.675Z" transform="translate(-1.795 -21.288)"/>
    <circle id="Ellipse_29" data-name="Ellipse 29" cx="1.032" cy="1.032" r="1.032" transform="translate(11.491 30.935)"/>
    <circle id="Ellipse_30" data-name="Ellipse 30" cx="1.032" cy="1.032" r="1.032" transform="translate(19.746 30.935)"/>
    <circle id="Ellipse_31" data-name="Ellipse 31" cx="1.032" cy="1.032" r="1.032" transform="translate(28 30.935)"/>
    <circle id="Ellipse_32" data-name="Ellipse 32" cx="1.032" cy="1.032" r="1.032" transform="translate(3.237 30.935)"/>
    <path id="Path_18623" data-name="Path 18623" d="M26.675,18a5.682,5.682,0,0,0,5.675-5.675c0-2.985-5.046-9.82-5.262-10.111a.534.534,0,0,0-.829,0C26.046,2.507,21,9.342,21,12.327A5.682,5.682,0,0,0,26.675,18Zm0-14.6c1.6,2.242,4.643,6.918,4.643,8.925a4.643,4.643,0,1,1-9.286,0C22.032,10.321,25.076,5.644,26.675,3.4Z" transform="translate(-10.024 -0.48)"/>
    <path id="Path_18624" data-name="Path 18624" d="M16.35,14.942H17.9a4.132,4.132,0,0,0,4.127-4.127V9.267a.516.516,0,0,0-.516-.516H19.961a4.132,4.132,0,0,0-4.127,4.127v1.548A.516.516,0,0,0,16.35,14.942ZM17.9,13.91h-.3l3.4-3.4v.3A3.1,3.1,0,0,1,17.9,13.91Zm2.064-4.127h.3l-3.4,3.4v-.3a3.1,3.1,0,0,1,3.1-3.1ZM7.064,16.49a2.064,2.064,0,0,0,2.064-2.064c0-.967-1.365-2.992-1.639-3.388a.535.535,0,0,0-.849,0C6.365,11.434,5,13.459,5,14.426A2.064,2.064,0,0,0,7.064,16.49Zm0-4.219A6.864,6.864,0,0,1,8.1,14.426a1.032,1.032,0,0,1-2.064,0A6.885,6.885,0,0,1,7.064,12.27ZM30.795,9.783a2.064,2.064,0,0,0,2.064-2.064c0-.967-1.365-2.992-1.639-3.388a.535.535,0,0,0-.849,0c-.274.4-1.639,2.422-1.639,3.388A2.064,2.064,0,0,0,30.795,9.783Zm0-4.219a6.864,6.864,0,0,1,1.032,2.156,1.032,1.032,0,0,1-2.064,0A6.885,6.885,0,0,1,30.795,5.564ZM11.282,1.236c-.274.4-1.639,2.422-1.639,3.388a2.064,2.064,0,1,0,4.127,0c0-.967-1.365-2.992-1.639-3.388a.535.535,0,0,0-.849,0Zm.425,4.42a1.032,1.032,0,0,1-1.032-1.032,6.885,6.885,0,0,1,1.032-2.156,6.864,6.864,0,0,1,1.032,2.156A1.032,1.032,0,0,1,11.707,5.656Z" transform="translate(-2.279)"/>
  </g>
</svg>
