<svg xmlns="http://www.w3.org/2000/svg" width="24" height="24" viewBox="0 0 24 24">
  <g id="bsalon" transform="translate(-24 -759.5)">
    <rect id="Rectangle_11" data-name="Rectangle 11" width="24" height="24" rx="5" transform="translate(24 759.5)" fill="#ebeef2"/>
    <g id="Group_1031" data-name="Group 1031" transform="translate(-1596.632 5438.863)">
      <path id="Path_18700" data-name="Path 18700" d="M17.02,16.034H4.239a.238.238,0,0,1-.233-.29,2.359,2.359,0,0,1,2.066-1.857c.077-.007,1.1,0,1.7,0a1.728,1.728,0,0,0,.741-.221c.895-.5.858-1.888.826-2.3l.476-.037c.038.485.074,2.117-1.069,2.756a2.212,2.212,0,0,1-.975.282c-.6,0-1.569-.005-1.652,0A1.869,1.869,0,0,0,4.56,15.557H16.7a1.872,1.872,0,0,0-1.559-1.194c-.078,0-1.052,0-1.646,0a2.214,2.214,0,0,1-.976-.282c-1.143-.639-1.107-2.271-1.069-2.756l.476.037c-.033.413-.069,1.8.826,2.3a1.73,1.73,0,0,0,.742.221c.6,0,1.617-.006,1.694,0a2.358,2.358,0,0,1,2.066,1.857.238.238,0,0,1-.233.29ZM14.155,1.55c.876.656,1.294,1.637.931,2.188a1.545,1.545,0,0,1-.914.344,3.543,3.543,0,0,0-2.377-2.036,1.276,1.276,0,0,1,.112-.683C12.272.81,13.279.9,14.155,1.55Z" transform="translate(1622.242 -4675.76)" fill="#09101d"/>
      <path id="Path_18701" data-name="Path 18701" d="M20.931,5.093a3.543,3.543,0,0,1,2.377,2.036,3.863,3.863,0,0,1,.329,1.566v1.914a.359.359,0,0,0-.358-.358H23.04a.359.359,0,0,0-.358.358V9.3a4.613,4.613,0,0,1-4.057-1.671,2.252,2.252,0,0,1-.716,1.193,2.207,2.207,0,0,1-.955.477v1.313a.358.358,0,0,0-.358-.358h-.239a.357.357,0,0,0-.358.358V8.694A3.6,3.6,0,0,1,19.472,5h.692A3.132,3.132,0,0,1,20.931,5.093Z" transform="translate(1613.107 -4678.807)" fill="#09101d"/>
      <path id="Path_18702" data-name="Path 18702" d="M21.386,18.381a.24.24,0,0,1-.132-.04.766.766,0,0,0-.81,0,.239.239,0,0,1-.263-.4,1.246,1.246,0,0,1,1.339,0,.239.239,0,0,1-.132.437Zm.743,2.506a2.142,2.142,0,0,1-.845-.174.239.239,0,0,1,.2-.432,1.591,1.591,0,0,0,1.228,0,.239.239,0,0,1,.2.432,1.836,1.836,0,0,1-.791.174Zm1.763-2.506a.24.24,0,0,1-.132-.04.766.766,0,0,0-.81,0,.239.239,0,0,1-.263-.4,1.246,1.246,0,0,1,1.339,0,.239.239,0,0,1-.132.437Zm-4.654.079A.239.239,0,0,1,19,18.221V16.909a.239.239,0,0,1,.187-.233,1.968,1.968,0,0,0,.851-.425,2,2,0,0,0,.638-1.065.239.239,0,1,1,.466.105,2.483,2.483,0,0,1-.793,1.321,2.442,2.442,0,0,1-.872.48v1.129A.239.239,0,0,1,19.239,18.46Z" transform="translate(1610.823 -4686.419)" fill="#09101d"/>
      <path id="Path_18703" data-name="Path 18703" d="M22.1,18.711a3.321,3.321,0,0,1-.837-.165,3.248,3.248,0,0,1-1.236-.736A3.392,3.392,0,0,1,19,15.626a.239.239,0,1,1,.476-.034,2.91,2.91,0,0,0,.881,1.872,2.78,2.78,0,0,0,1.058.629,2.859,2.859,0,0,0,.688.14,2.837,2.837,0,0,0,2.625-2.642.239.239,0,0,1,.476.034,3.315,3.315,0,0,1-3.086,3.085H22.1Zm2.864-4.057a.239.239,0,0,1-.239-.239V13.369a4.855,4.855,0,0,1-4.008-1.793.237.237,0,0,1-.049-.145V10.239a.239.239,0,1,1,.477,0v1.108a4.37,4.37,0,0,0,3.785,1.52.239.239,0,0,1,.273.236v1.313A.239.239,0,0,1,24.964,14.654Z" transform="translate(1610.825 -4682.614)" fill="#09101d"/>
      <path id="Path_18704" data-name="Path 18704" d="M15.835,28.625H15.6a.6.6,0,0,1-.6-.6v-.6h.477v.6a.12.12,0,0,0,.119.119h.239a.12.12,0,0,0,.119-.119V26.6a.12.12,0,0,0-.119-.119H15.6a.12.12,0,0,0-.119.119H15a.6.6,0,0,1,.6-.6h.239a.6.6,0,0,1,.6.6v1.432A.6.6,0,0,1,15.835,28.625Zm6.682,0h-.239a.6.6,0,0,1-.6-.6V26.6a.6.6,0,0,1,.6-.6h.239a.6.6,0,0,1,.6.6h-.477a.121.121,0,0,0-.119-.119h-.239a.121.121,0,0,0-.119.119v1.432a.12.12,0,0,0,.119.119h.239a.12.12,0,0,0,.119-.119v-.6h.477v.6A.6.6,0,0,1,22.518,28.625Z" transform="translate(1613.868 -4694.795)" fill="#09101d"/>
      <path id="Path_18705" data-name="Path 18705" d="M23.114,10.682h-.477V7.933a3.61,3.61,0,0,0-.309-1.469,3.317,3.317,0,0,0-2.214-1.9,2.9,2.9,0,0,0-.71-.086h-.692a3.354,3.354,0,0,0-3.234,3.456v2.749H15V7.933A3.831,3.831,0,0,1,18.711,4H19.4a3.38,3.38,0,0,1,.824.1,3.8,3.8,0,0,1,2.537,2.171,4.084,4.084,0,0,1,.35,1.662Z" transform="translate(1613.868 -4678.045)" fill="#09101d"/>
      <path id="Path_18706" data-name="Path 18706" d="M12.639,3.559a.239.239,0,0,1-.03-.475,1.52,1.52,0,0,0,.744-.237c.29-.441-.111-1.3-.874-1.867a2.122,2.122,0,0,0-1.5-.488.586.586,0,0,0-.41.243,1.09,1.09,0,0,0-.074.527c0,.008,0,.028,0,.036a.239.239,0,0,1-.477,0,1.485,1.485,0,0,1,.151-.825A1.057,1.057,0,0,1,10.9.021,2.553,2.553,0,0,1,12.765.6c.991.743,1.425,1.846.988,2.511-.2.306-.824.416-1.083.449l-.03,0ZM3.422,5.01a.239.239,0,0,1-.239-.239c0-1.374-.857-1.43-.957-1.432a.239.239,0,0,1,0-.477h0c.1,0,.955-.057.955-1.432a.239.239,0,1,1,.477,0c0,1.374.857,1.43.957,1.432a.239.239,0,0,1,0,.477h0c-.1,0-.957.058-.957,1.432A.239.239,0,0,1,3.422,5.01ZM2.938,3.1a1.45,1.45,0,0,1,.484.543A1.448,1.448,0,0,1,3.906,3.1a1.448,1.448,0,0,1-.484-.543A1.45,1.45,0,0,1,2.938,3.1Zm10.985,9.785a.239.239,0,0,1-.239-.239c0-1.374-.857-1.43-.957-1.432a.239.239,0,1,1,0-.477h0c.1,0,.955-.057.955-1.432a.239.239,0,1,1,.477,0c0,1.374.857,1.43.957,1.432a.239.239,0,0,1,0,.477h0c-.1,0-.957.058-.957,1.432A.239.239,0,0,1,13.923,12.886Zm-.484-1.909a1.448,1.448,0,0,1,.484.543,1.448,1.448,0,0,1,.484-.543,1.448,1.448,0,0,1-.484-.543A1.45,1.45,0,0,1,13.439,10.976ZM4.274,12.408a.239.239,0,0,1-.239-.239c0-.944-.589-.955-.613-.955a.239.239,0,1,1,0-.477c.06,0,.613-.043.613-.955a.239.239,0,0,1,.477,0c0,.91.551.953.616.955a.239.239,0,1,1,0,.477h0c-.065,0-.616.045-.616.955A.239.239,0,0,1,4.274,12.408Zm-.229-1.432a1.075,1.075,0,0,1,.229.252,1.085,1.085,0,0,1,.229-.252,1.075,1.075,0,0,1-.229-.252A1.075,1.075,0,0,1,4.045,10.976Z" transform="translate(1623.775 -4674.998)" fill="#09101d"/>
    </g>
  </g>
</svg>
