<svg xmlns="http://www.w3.org/2000/svg" width="24" height="24" viewBox="0 0 24 24">
  <g id="LaserTattoo" transform="translate(-24 -759.5)">
    <rect id="Rectangle_11" data-name="Rectangle 11" width="24" height="24" rx="5" transform="translate(24 759.5)" fill="#ebeef2"/>
    <g id="Group_1026" data-name="Group 1026" transform="translate(-1593.198 5638)">
      <path id="Path_18693" data-name="Path 18693" d="M30.594,336.261a.7.7,0,0,0-.672-.576q-1.48-.006-2.96,0a.65.65,0,0,0-.612.4.677.677,0,0,0,.089.75.6.6,0,0,0,.1.1.636.636,0,0,0,.4.135h3.075a.407.407,0,0,0,.154-.03h0A.7.7,0,0,0,30.594,336.261Z" transform="translate(1595.414 -5196.554)" fill="#09101d"/>
      <path id="Path_18694" data-name="Path 18694" d="M168.6-78.977a.734.734,0,0,0-.811-.545c-.364.019-.728.012-1.092,0-.217-.008-.3.061-.3.267q0,1.419,0,2.838c0,.03,0,.061,0,.091a.241.241,0,0,1-.342.215.243.243,0,0,1-.138-.249q0-1.434,0-2.869a.811.811,0,0,0,0-.091.213.213,0,0,0-.223-.2h-3.371a.2.2,0,0,1-.166-.058,2.1,2.1,0,0,0-.8-.533,8.473,8.473,0,0,0-2.108-.536c-.341-.051-.683-.088-1.026-.116a3.265,3.265,0,0,0-.758-.009,1.88,1.88,0,0,0-1.613,1.86q0,.845,0,1.689a.938.938,0,0,0,.029.233.694.694,0,0,0,.775.523.7.7,0,0,0,.6-.713c0-.566,0-1.131,0-1.7a.176.176,0,0,1,.17-.176c.076,0,.152,0,.227,0a.683.683,0,0,1,.693.728,1.233,1.233,0,0,0,.038.339,1.9,1.9,0,0,0,1.841,1.517c.1,0,.16.057.158.144s-.06.134-.158.137a1.8,1.8,0,0,1-.385-.037,2.184,2.184,0,0,1-1.778-2.119.4.4,0,0,0-.412-.425.107.107,0,0,0-.113.108q0,.738,0,1.476a.971.971,0,0,1-.3.725c-.048.047-.04.062.021.08a.978.978,0,0,1,.472,1.6c-.039.045-.039.066.023.077a.566.566,0,0,1,.087.027.983.983,0,0,1,.415,1.554c-.021.025-.041.05-.08.05h.948a7.421,7.421,0,0,0,1.806-.3,2.577,2.577,0,0,0,1.107-.612.549.549,0,0,1,.444-.165q2.651.006,5.3,0a.737.737,0,0,0,.82-.583v-4.216C168.61-78.953,168.605-78.965,168.6-78.977Zm-4.365,1.408c-.021.077-.082.1-.158.1a.382.382,0,0,0-.339.371.582.582,0,0,0,.374.629c.07.029.118.067.115.15a.126.126,0,0,1-.123.129.234.234,0,0,1-.1-.017.858.858,0,0,1-.328-1.377c.012-.014.039-.025.025-.049s-.04-.019-.062-.021a.77.77,0,0,0-.794.516,1.092,1.092,0,0,0-.06.464c.009.172-.088.236-.239.156a1.176,1.176,0,0,1-.62-.914,1.347,1.347,0,0,1,.151-.846c.007-.013.011-.027.017-.041a.58.58,0,0,0-.227.151,1.438,1.438,0,0,0-.362,1.588,1.514,1.514,0,0,0,1.156,1.058,1.958,1.958,0,0,0,.814-.03,4.412,4.412,0,0,0,.552-.141.146.146,0,0,1,.2.076.142.142,0,0,1-.1.19,3.731,3.731,0,0,1-1.138.219,1.743,1.743,0,0,1-1.534-.834,1.85,1.85,0,0,1-.313-1.192,1.7,1.7,0,0,1,.886-1.4,1.768,1.768,0,0,1,.685-.236.149.149,0,0,1,.172.091.14.14,0,0,1-.079.177,1.129,1.129,0,0,0-.452.418,1.082,1.082,0,0,0,.034,1.165.3.3,0,0,0,.033.042c.023.022.039.067.073.056s.021-.053.027-.082a1.073,1.073,0,0,1,.806-.905.98.98,0,0,1,.838.163A.155.155,0,0,1,164.236-77.569Zm.314-.584a.144.144,0,0,1,.21.008q.316.313.63.629a.137.137,0,0,1,.038.166.132.132,0,0,1-.132.081.131.131,0,0,1-.1-.046c-.211-.212-.424-.422-.634-.635A.136.136,0,0,1,164.551-78.152Zm.862,2.549a.863.863,0,0,1-.078.083c-.19.19-.379.381-.57.569a.143.143,0,0,1-.251-.055.159.159,0,0,1,.06-.155l.6-.6a.42.42,0,0,1,.033-.031.2.2,0,0,1,.088-.036.155.155,0,0,1,.13.084A.126.126,0,0,1,165.413-75.6Zm2.31.7a.135.135,0,0,1-.159-.037l-.388-.386c-.086-.086-.175-.169-.256-.26a.138.138,0,0,1,.064-.231.131.131,0,0,1,.138.041q.321.319.641.64a.129.129,0,0,1,.043.1A.129.129,0,0,1,167.723-74.909Zm.033-3.034c-.208.208-.415.416-.624.623a.143.143,0,0,1-.21.012.141.141,0,0,1,.009-.209c.209-.211.419-.419.628-.629a.149.149,0,0,1,.168-.036.123.123,0,0,1,.079.13A.143.143,0,0,1,167.756-77.942Z" transform="translate(1467.804 -4786.417)" fill="#09101d"/>
      <path id="Path_18695" data-name="Path 18695" d="M691.738-494a.965.965,0,0,1,.19.094.533.533,0,0,1,.226.443c0,.261,0,.522,0,.784a8.956,8.956,0,0,1-.278,2.059c-.142.586-.28,1.173-.42,1.759-.039.164-.1.209-.265.209h-2.48c-.159,0-.218-.044-.255-.2-.189-.809-.4-1.614-.567-2.427-.061-.293.073-.369.3-.366.631.009,1.263,0,1.894,0,.134,0,.2-.05.2-.143s-.071-.138-.2-.138h-2.054a.226.226,0,0,1-.256-.244c-.024-.4-.024-.8-.03-1.193a.589.589,0,0,1,.43-.637Z" transform="translate(944.01 -4379.5)" fill="#09101d"/>
      <path id="Path_18696" data-name="Path 18696" d="M-6,226.154a.736.736,0,0,1,.391-.489.616.616,0,0,1,.271-.065c.994,0,1.988,0,2.982,0a.689.689,0,0,1,.666.605.7.7,0,0,1-.549.774.94.94,0,0,1-.181.016c-.931,0-1.862-.009-2.792,0A.742.742,0,0,1-6,226.428Z" transform="translate(1627.198 -5088.147)" fill="#09101d"/>
      <path id="Path_18697" data-name="Path 18697" d="M-6,115.2a.718.718,0,0,1,.4-.5.67.67,0,0,1,.28-.063c.469,0,.938,0,1.407,0,.069,0,.093.021.092.091,0,.185,0,.37,0,.555a.988.988,0,0,0,.268.684c.015.016.044.031.036.054s-.043.02-.067.02c-.566,0-1.131,0-1.7,0A.718.718,0,0,1-6,115.476Z" transform="translate(1627.198 -4978.871)" fill="#09101d"/>
      <path id="Path_18698" data-name="Path 18698" d="M-6,4.535a.745.745,0,0,1,.348-.47.758.758,0,0,1,.379-.093q.6,0,1.209,0c.212,0,.285.085.261.3-.029.265-.013.532-.017.8,0,.071,0,.142,0,.213s-.021.1-.094.1c-.248,0-.5,0-.745,0-.185,0-.37-.007-.555,0A.749.749,0,0,1-6,4.809Z" transform="translate(1627.198 -4869.892)" fill="#09101d"/>
      <path id="Path_18699" data-name="Path 18699" d="M815.718-115.625c0-.2,0-.405,0-.608,0-.116.034-.15.149-.15.081,0,.162,0,.243,0a.113.113,0,0,1,.128.118c0,.03,0,.061,0,.091q0,.559,0,1.117c0,.178-.025.2-.2.2-.061,0-.122,0-.182,0-.1,0-.138-.044-.139-.141C815.717-115.2,815.718-115.415,815.718-115.625Z" transform="translate(817.987 -4751.37)" fill="#09101d"/>
    </g>
  </g>
</svg>
